<svg width="409" height="96" viewBox="0 0 409 96" fill="none" xmlns="http://www.w3.org/2000/svg">
<path d="M66.2691 29.4843C66.2691 33.174 65.3205 36.696 63.4232 40.0503C61.5937 43.4046 59.0866 46.3564 55.9019 48.9057C52.7849 51.3878 49.092 53.3669 44.8231 54.8428C40.622 56.3187 36.1499 57.0566 31.4067 57.0566C29.7127 57.0566 28.3575 56.8553 27.3411 56.4528C26.3925 55.9832 25.3083 55.1111 24.0886 53.8365C20.7006 61.1488 17.9225 67.891 15.7542 74.0629C13.6536 80.1677 11.9935 86.1048 10.7738 91.8742C8.19894 91.2704 6.09839 90.1971 4.47215 88.6541C2.84591 87.1782 1.3552 85.2998 0 83.0189C0.677598 81.7442 1.49072 80.0671 2.43935 77.9874C3.38799 75.9078 4.53991 73.3585 5.89511 70.3396C7.2503 67.2537 8.80878 63.5975 10.5705 59.3711C12.4001 55.0776 14.5345 50.0797 16.9738 44.3774C18.058 41.761 19.0066 39.4801 19.8198 37.5346C20.6329 35.5891 21.3444 33.7778 21.9542 32.1006C22.564 30.3564 23.1061 28.6457 23.5804 26.9686C24.1225 25.2914 24.6646 23.4465 25.2067 21.434C22.022 22.4402 19.0744 23.6143 16.364 24.956C13.7214 26.2977 11.5192 27.7065 9.75742 29.1824C9.14758 28.7799 8.50386 28.1761 7.82626 27.3711C7.21642 26.566 6.64047 25.6939 6.09839 24.7547C5.55631 23.7484 5.08199 22.7421 4.67543 21.7358C4.26887 20.7296 4.03171 19.8239 3.96395 19.0189C5.92899 17.6771 8.36834 16.4361 11.282 15.2956C14.1957 14.1551 17.3126 13.1824 20.6329 12.3774C23.9531 11.5052 27.375 10.8344 30.8985 10.3648C34.4898 9.89518 37.9116 9.66037 41.1641 9.66037C45.0264 9.66037 48.516 10.1635 51.633 11.1698C54.75 12.109 57.3926 13.4507 59.5609 15.195C61.7292 16.9392 63.3893 19.0189 64.5413 21.434C65.6932 23.8491 66.2691 26.5325 66.2691 29.4843ZM48.1772 17.4088C45.6024 17.4088 42.9597 17.6101 40.2493 18.0126L41.469 19.8239C40.7914 20.696 39.9444 22.0042 38.928 23.7484C37.9116 25.4927 36.7936 27.6059 35.5739 30.088C34.3542 32.5031 32.999 35.2201 31.5083 38.239C30.0854 41.2579 28.5608 44.4444 26.9345 47.7987C32.2198 47.7987 37.0308 47.3291 41.3674 46.3899C45.704 45.3836 49.3969 44.0419 52.4461 42.3648C55.5631 40.6205 57.9686 38.608 59.6625 36.327C61.4243 34.0461 62.3052 31.5975 62.3052 28.9811C62.3052 25.4927 61.1194 22.7086 58.7478 20.6289C56.3762 18.4822 52.8527 17.4088 48.1772 17.4088Z" fill="black"/>
<path d="M60.9672 76.9811C60.9672 76.3774 61.0011 75.6394 61.0688 74.7673C61.2043 73.8281 61.4076 72.6205 61.6787 71.1447C61.9497 69.6017 62.2885 67.7568 62.6951 65.6101C63.1694 63.4633 63.7453 60.8805 64.4229 57.8616C64.5585 57.1908 64.8634 56.1174 65.3377 54.6415C65.812 53.1656 66.4219 51.6226 67.1672 50.0126C67.9803 48.3354 68.929 46.7254 70.0131 45.1824C71.165 43.6394 72.5202 42.499 74.0787 41.761C75.2306 42.0294 76.7552 42.7337 78.6525 43.8742C80.5498 44.9476 82.176 46.457 83.5312 48.4025C81.9727 50.1468 80.6514 51.891 79.5673 53.6352C78.5509 55.3795 77.6022 57.1908 76.7214 59.0692C75.9082 60.9476 75.129 62.8931 74.3836 64.9057C73.706 66.9182 72.9268 69.0314 72.0459 71.2453C71.3006 73.1237 70.623 75.0692 70.0131 77.0818C69.4033 79.0273 69.0645 80.7379 68.9967 82.2138C68.9967 83.4214 68.9629 84.26 68.8951 84.7296C68.8951 85.2662 68.7257 85.5346 68.3869 85.5346C68.1159 85.5346 67.5738 85.3669 66.7607 85.0314C65.9475 84.696 65.1005 84.1929 64.2197 83.522C63.4065 82.7841 62.6612 81.8784 61.9836 80.805C61.306 79.7317 60.9672 78.457 60.9672 76.9811ZM80.3804 33.3082C80.3804 32.9057 80.482 32.3019 80.6853 31.4969C80.3465 31.1614 80.0416 30.6583 79.7705 29.9874C79.5673 29.3166 79.4656 28.7128 79.4656 28.1761C79.4656 27.5723 79.5334 26.7673 79.6689 25.761C79.8722 24.6876 80.1093 23.5472 80.3804 22.3396C80.6514 21.1321 80.9902 19.891 81.3968 18.6164C81.8033 17.2746 82.2099 16.0671 82.6165 14.9937C83.4296 14.9937 84.4121 15.2285 85.564 15.6981C86.7837 16.1006 88.0034 16.6709 89.223 17.4088C90.4427 18.0797 91.5608 18.8512 92.5772 19.7233C93.5936 20.5283 94.3728 21.2998 94.9149 22.0377C94.1695 22.7757 93.187 23.8155 91.9673 25.1572C90.7476 26.4319 89.5618 27.8071 88.4099 29.283C87.258 30.6918 86.2077 32.0335 85.2591 33.3082C84.3105 34.5828 83.7006 35.4885 83.4296 36.0252C82.6165 35.891 81.905 35.5556 81.2951 35.0189C80.6853 34.4151 80.3804 33.8449 80.3804 33.3082Z" fill="black"/>
<path d="M85.0892 74.2642C85.0892 71.8491 85.699 68.4948 86.9187 64.2013C88.2061 59.9078 89.8662 55.2117 91.899 50.1132C93.9318 45.0147 96.2357 39.7484 98.8105 34.3145C101.385 28.8805 103.96 23.8155 106.535 19.1195C109.178 14.4235 111.685 10.3648 114.056 6.9434C116.496 3.52201 118.563 1.20755 120.257 0C121.205 0.0670851 122.222 0.4696 123.306 1.20754C124.458 1.94549 125.508 2.85115 126.457 3.92453C127.405 4.93081 128.184 6.00419 128.794 7.14465C129.472 8.28511 129.811 9.32495 129.811 10.2642C126.761 12.6792 123.645 15.7987 120.46 19.6226C117.343 23.3795 114.361 27.5388 111.516 32.1006C108.67 36.5954 106.027 41.392 103.588 46.4906C101.216 51.522 99.2171 56.4864 97.5909 61.3836C99.7592 57.6939 102.029 54.3396 104.401 51.3208C106.772 48.3019 109.144 45.7191 111.516 43.5723C113.887 41.4256 116.191 39.782 118.427 38.6415C120.731 37.434 122.899 36.7966 124.932 36.7296C127.913 38.8763 129.404 41.7275 129.404 45.283C129.404 47.4298 128.964 49.6101 128.083 51.8239C127.202 53.9706 126.016 55.9832 124.525 57.8616C123.102 59.673 121.442 61.2495 119.545 62.5912C117.716 63.8658 115.784 64.7044 113.752 65.1069C114.429 67.4549 115.276 69.8365 116.293 72.2516C117.377 74.6667 118.63 77.0147 120.053 79.2956C121.544 81.5765 123.204 83.6897 125.034 85.6352C126.931 87.5807 129.065 89.2243 131.437 90.566C131.098 91.2369 130.59 91.9078 129.912 92.5786C129.235 93.2495 128.422 93.8197 127.473 94.2893C126.524 94.826 125.474 95.2285 124.322 95.4969C123.238 95.8323 122.154 96 121.07 96C119.24 96 117.512 95.0943 115.886 93.283C114.328 91.4717 112.905 88.8553 111.617 85.434C110.601 82.6834 109.618 79.3962 108.67 75.5723C107.721 71.7484 106.874 67.7568 106.129 63.5975C107.077 62.9937 108.263 62.1216 109.686 60.9811C111.109 59.7736 112.6 58.3983 114.158 56.8553C120.121 51.153 123.102 46.2222 123.102 42.0629C123.102 41.5262 122.73 41.2579 121.984 41.2579C120.629 41.3249 119.037 41.9623 117.207 43.1698C115.378 44.3774 113.413 46.0545 111.312 48.2013C109.279 50.348 107.179 52.8637 105.011 55.7484C102.91 58.6331 100.877 61.7526 98.9122 65.1069C98.0991 66.4486 97.3537 67.9916 96.6761 69.7358C95.9985 71.4801 95.3887 73.2914 94.8466 75.1698C94.3723 76.9811 93.9996 78.7925 93.7285 80.6038C93.4575 82.4151 93.322 84.0922 93.322 85.6352C93.322 86.5744 93.4236 87.3459 93.6269 87.9497C91.5264 87.7484 90.2389 87.2117 89.7646 86.3396C89.2225 85.5346 88.7482 84.8637 88.3416 84.327C88.0028 83.8574 87.6302 83.4549 87.2236 83.1195C86.6138 82.6499 86.1056 81.6436 85.699 80.1006C85.2924 78.5576 85.0892 76.6122 85.0892 74.2642Z" fill="black"/>
<path d="M179.678 91.1698C179.542 91.2369 179.407 91.2704 179.271 91.2704C179.136 91.2704 178.865 91.2704 178.458 91.2704C177.509 91.2704 176.391 91.1027 175.104 90.7673C173.884 90.499 172.665 90.13 171.445 89.6604C170.293 89.2579 169.277 88.7883 168.396 88.2516C167.583 87.7149 167.074 87.2453 166.871 86.8428C166.803 85.9036 166.769 84.9308 166.769 83.9245C166.769 82.9182 166.769 81.9455 166.769 81.0063C166.769 73.4927 167.312 65.6436 168.396 57.4591C169.548 49.2746 171.411 40.4193 173.986 30.8931C174.257 29.9539 174.528 28.7799 174.799 27.3711C175.138 25.8952 175.477 24.3187 175.815 22.6415C174.189 23.9161 172.258 25.9623 170.022 28.7799C167.786 31.5304 165.414 34.8176 162.907 38.6415C160.468 42.3983 157.995 46.5576 155.487 51.1195C153.048 55.6143 150.812 60.2096 148.779 64.9057C146.746 69.5346 144.985 74.13 143.494 78.6918C142.071 83.2537 141.19 87.4801 140.851 91.3711C137.599 90.4319 135.329 89.4927 134.041 88.5535C132.822 87.6143 132.212 86.4738 132.212 85.1321C132.212 83.9245 132.585 82.2138 133.33 80C134.075 77.7862 135.126 75.1698 136.481 72.1509C137.836 69.1321 139.496 65.7778 141.461 62.0881C143.426 58.3312 145.594 54.3061 147.966 50.0126C150.676 45.1153 153.319 40.5199 155.894 36.2264C158.537 31.9329 161.111 28.0419 163.619 24.5535C166.126 21.065 168.565 18.0461 170.937 15.4969C173.376 12.9476 175.782 11.0021 178.153 9.66037C179.102 9.66037 180.355 9.89518 181.914 10.3648C183.54 10.8344 185.098 11.4046 186.589 12.0755C188.148 12.7463 189.503 13.4507 190.655 14.1887C191.874 14.8595 192.552 15.4298 192.688 15.8994C191.739 17.7778 190.621 20.5954 189.333 24.3522C188.046 28.109 186.725 32.369 185.37 37.1321C184.082 41.8952 182.829 46.9602 181.609 52.327C180.457 57.6268 179.542 62.7254 178.865 67.6226C180.423 63.9329 182.219 60.109 184.251 56.1509C186.352 52.1258 188.554 48.1677 190.858 44.2767C193.162 40.3187 195.5 36.4948 197.871 32.805C200.311 29.1153 202.682 25.761 204.986 22.7421C207.29 19.6562 209.424 16.9727 211.389 14.6918C213.422 12.4109 215.218 10.7338 216.776 9.66037C217.725 9.66037 218.978 9.89518 220.537 10.3648C222.163 10.8344 223.722 11.4046 225.212 12.0755C226.771 12.7463 228.126 13.4507 229.278 14.1887C230.498 14.8595 231.175 15.4298 231.311 15.8994C229.142 19.7233 227.245 24.3857 225.619 29.8868C223.993 35.3878 222.604 41.1572 221.452 47.195C220.367 53.2327 219.52 59.2369 218.911 65.2076C218.369 71.1111 218.098 76.4109 218.098 81.1069C218.098 82.6499 218.098 84.26 218.098 85.9371C218.098 87.6143 218.165 89.3585 218.301 91.1698C217.352 91.1698 216.2 91.0356 214.845 90.7673C213.558 90.566 212.27 90.2642 210.983 89.8616C209.763 89.4591 208.645 88.9895 207.629 88.4528C206.612 87.9832 205.901 87.4465 205.494 86.8428C205.426 85.9036 205.393 84.9308 205.393 83.9245C205.393 82.9182 205.393 81.9455 205.393 81.0063C205.393 73.4927 205.935 65.6436 207.019 57.4591C208.171 49.2746 210.034 40.4193 212.609 30.8931C212.88 29.9539 213.185 28.6792 213.524 27.0692C213.863 25.4591 214.201 23.782 214.54 22.0377C212.643 22.9769 210.475 24.7883 208.035 27.4717C205.664 30.088 203.224 33.3082 200.717 37.1321C198.278 40.8889 195.838 45.0818 193.399 49.7107C191.027 54.3396 188.859 59.0692 186.894 63.8994C184.997 68.6625 183.371 73.4256 182.015 78.1887C180.728 82.8847 179.949 87.2117 179.678 91.1698Z" fill="black"/>
<path d="M265.562 43.0692C266.24 43.0692 267.019 43.2034 267.9 43.4717C268.849 43.673 269.696 43.9748 270.441 44.3774C271.187 44.7128 271.796 45.0818 272.271 45.4843C272.813 45.8868 273.084 46.2558 273.084 46.5912C271.729 49.4088 270.475 52.26 269.323 55.1447C268.171 57.9623 267.189 60.6792 266.376 63.2956C265.562 65.9119 264.919 68.3606 264.444 70.6415C264.038 72.9224 263.835 74.9015 263.835 76.5786C263.835 78.457 264.038 80.0335 264.444 81.3082C264.851 82.5157 265.529 83.3878 266.477 83.9245C265.664 84.4612 264.614 84.8973 263.326 85.2327C262.039 85.5681 260.887 85.7358 259.871 85.7358C256.212 85.7358 254.382 83.2537 254.382 78.2893C254.382 74.4654 255.67 69.2327 258.244 62.5912C256.889 65.6771 255.331 68.5954 253.569 71.3459C251.807 74.0294 250.012 76.4109 248.182 78.4906C246.353 80.5702 244.489 82.2809 242.592 83.6226C240.762 84.8973 239.068 85.6688 237.51 85.9371C235.003 85.8029 232.97 84.6289 231.412 82.4151C229.853 80.1342 229.074 77.2495 229.074 73.761C229.074 70.0042 229.887 66.0461 231.513 61.8868C233.139 57.7275 235.206 53.87 237.713 50.3145C240.288 46.7589 243.066 43.8071 246.048 41.4591C249.029 39.044 251.909 37.7694 254.687 37.6352C255.365 37.8365 256.11 38.239 256.923 38.8428C257.804 39.4465 258.617 40.1509 259.362 40.956C260.176 41.761 260.853 42.5996 261.395 43.4717C261.937 44.2767 262.242 44.9811 262.31 45.5849C259.6 45.9874 256.788 47.2956 253.874 49.5094C251.028 51.7233 248.419 54.4067 246.048 57.5597C243.744 60.6457 241.847 63.9665 240.356 67.522C238.865 71.0776 238.12 74.3983 238.12 77.4843C238.12 78.7589 238.594 79.5639 239.543 79.8994C241.508 79.4969 243.778 77.8533 246.353 74.9686C248.927 72.0168 252.044 67.4885 255.703 61.3836C256.381 60.1761 257.126 58.8344 257.94 57.3585C258.82 55.8826 259.701 54.3396 260.582 52.7296C261.463 51.1195 262.31 49.5094 263.123 47.8994C264.004 46.2222 264.817 44.6122 265.562 43.0692Z" fill="black"/>
<path d="M278.443 74.2642C278.443 71.8491 279.053 68.4948 280.272 64.2013C281.56 59.9078 283.22 55.2117 285.253 50.1132C287.286 45.0147 289.589 39.7484 292.164 34.3145C294.739 28.8805 297.314 23.8155 299.889 19.1195C302.532 14.4235 305.039 10.3648 307.41 6.9434C309.85 3.52201 311.916 1.20755 313.61 0C314.559 0.0670851 315.575 0.4696 316.66 1.20754C317.811 1.94549 318.862 2.85115 319.81 3.92453C320.759 4.93081 321.538 6.00419 322.148 7.14465C322.826 8.28511 323.164 9.32495 323.164 10.2642C320.115 12.6792 316.998 15.7987 313.814 19.6226C310.697 23.3795 307.715 27.5388 304.869 32.1006C302.023 36.5954 299.381 41.392 296.941 46.4906C294.57 51.522 292.571 56.4864 290.945 61.3836C293.113 57.6939 295.383 54.3396 297.754 51.3208C300.126 48.3019 302.498 45.7191 304.869 43.5723C307.241 41.4256 309.545 39.782 311.781 38.6415C314.085 37.434 316.253 36.7966 318.286 36.7296C321.267 38.8763 322.758 41.7275 322.758 45.283C322.758 47.4298 322.317 49.6101 321.437 51.8239C320.556 53.9706 319.37 55.9832 317.879 57.8616C316.456 59.673 314.796 61.2495 312.899 62.5912C311.069 63.8658 309.138 64.7044 307.105 65.1069C307.783 67.4549 308.63 69.8365 309.646 72.2516C310.731 74.6667 311.984 77.0147 313.407 79.2956C314.898 81.5765 316.558 83.6897 318.387 85.6352C320.285 87.5807 322.419 89.2243 324.791 90.566C324.452 91.2369 323.944 91.9078 323.266 92.5786C322.588 93.2495 321.775 93.8197 320.827 94.2893C319.878 94.826 318.828 95.2285 317.676 95.4969C316.592 95.8323 315.508 96 314.423 96C312.594 96 310.866 95.0943 309.24 93.283C307.681 91.4717 306.258 88.8553 304.971 85.434C303.955 82.6834 302.972 79.3962 302.023 75.5723C301.075 71.7484 300.228 67.7568 299.482 63.5975C300.431 62.9937 301.617 62.1216 303.04 60.9811C304.463 59.7736 305.953 58.3983 307.512 56.8553C313.475 51.153 316.456 46.2222 316.456 42.0629C316.456 41.5262 316.084 41.2579 315.338 41.2579C313.983 41.3249 312.391 41.9623 310.561 43.1698C308.732 44.3774 306.767 46.0545 304.666 48.2013C302.633 50.348 300.533 52.8637 298.364 55.7484C296.264 58.6331 294.231 61.7526 292.266 65.1069C291.453 66.4486 290.707 67.9916 290.03 69.7358C289.352 71.4801 288.742 73.2914 288.2 75.1698C287.726 76.9811 287.353 78.7925 287.082 80.6038C286.811 82.4151 286.676 84.0922 286.676 85.6352C286.676 86.5744 286.777 87.3459 286.981 87.9497C284.88 87.7484 283.593 87.2117 283.118 86.3396C282.576 85.5346 282.102 84.8637 281.695 84.327C281.357 83.8574 280.984 83.4549 280.577 83.1195C279.968 82.6499 279.459 81.6436 279.053 80.1006C278.646 78.5576 278.443 76.6122 278.443 74.2642Z" fill="black"/>
<path d="M364.553 42.0629C364.282 46.2222 363.537 49.8113 362.317 52.8302C361.098 55.782 359.336 58.3983 357.032 60.6792C354.796 62.8931 352.052 64.9057 348.799 66.717C345.547 68.5283 341.752 70.2725 337.415 71.9497C337.415 72.3522 337.382 72.7883 337.314 73.2579C337.314 73.6604 337.314 74.0964 337.314 74.566C337.314 75.4382 337.382 76.3438 337.517 77.283C337.653 78.2222 337.89 79.0943 338.229 79.8994C338.567 80.7044 339.042 81.3753 339.652 81.912C340.261 82.3816 341.041 82.6164 341.989 82.6164C343.819 82.6164 345.614 82.2138 347.376 81.4088C349.138 80.6038 350.798 79.631 352.357 78.4906C353.983 77.283 355.473 76.0084 356.829 74.6667C358.252 73.2579 359.505 71.9832 360.589 70.8428C361.267 71.4465 361.843 72.0168 362.317 72.5535C359.268 76.5786 355.914 79.9329 352.255 82.6164C348.664 85.2327 345.242 86.9099 341.989 87.6478C337.314 87.1111 333.655 85.434 331.012 82.6164C328.437 79.7317 327.15 76.2767 327.15 72.2516C327.15 69.501 327.522 66.717 328.268 63.8994C329.081 61.0147 330.165 58.2641 331.52 55.6478C332.943 52.9644 334.57 50.4486 336.399 48.1006C338.296 45.7526 340.295 43.7065 342.396 41.9623C344.564 40.218 346.766 38.8428 349.002 37.8365C351.306 36.8302 353.576 36.327 355.812 36.327C358.929 36.7296 361.843 38.6415 364.553 42.0629ZM357.54 45.3836C355.711 45.652 353.813 46.3899 351.848 47.5975C349.883 48.805 348.02 50.4151 346.258 52.4277C344.564 54.4403 343.006 56.7883 341.583 59.4717C340.16 62.1551 339.042 65.0398 338.229 68.1258C343.649 65.4424 348.155 62.1551 351.747 58.2641C355.338 54.3061 357.269 50.0126 357.54 45.3836Z" fill="black"/>
<path d="M366.82 81.7107C367.158 79.7652 367.734 77.2159 368.547 74.0629C369.428 70.8428 370.445 67.4549 371.597 63.8994C372.749 60.2767 373.968 56.6541 375.256 53.0314C376.543 49.4088 377.797 46.1551 379.016 43.2704C379.897 41.1908 380.676 39.5807 381.354 38.4403C382.032 37.2327 382.777 36.2264 383.59 35.4214C384.539 35.5556 385.521 35.7904 386.538 36.1258C387.554 36.4612 388.537 36.8637 389.485 37.3333C390.434 37.8029 391.281 38.3061 392.026 38.8428C392.772 39.3124 393.348 39.782 393.754 40.2516C391.925 42.3983 390.298 44.847 388.875 47.5975C387.52 50.348 386.131 53.87 384.708 58.1635C388.367 54.9434 391.586 51.8574 394.364 48.9057C397.21 45.9539 399.852 42.6667 402.292 39.044C402.698 38.7086 403.41 38.5409 404.426 38.5409C405.375 38.5409 406.29 38.7086 407.171 39.044C408.051 39.3124 408.661 39.7149 409 40.2516C407.78 43.4717 407.171 46.6583 407.171 49.8113C407.171 52.7631 407.611 54.9769 408.492 56.4528C408.424 56.8553 407.95 57.6268 407.069 58.7673C406.256 59.9078 405.341 60.9811 404.325 61.9874C402.495 61.0482 400.869 59.7736 399.446 58.1635C398.023 56.4864 396.973 54.6751 396.295 52.7296C393.11 54.9434 390.4 57.1237 388.164 59.2704C385.928 61.3501 383.997 63.6981 382.37 66.3145C380.812 68.8637 379.457 71.8155 378.305 75.1698C377.221 78.5241 376.17 82.5157 375.154 87.1447C374.544 87.0776 373.799 86.8428 372.918 86.4403C372.105 86.1048 371.258 85.6688 370.377 85.1321C369.564 84.5954 368.818 84.0252 368.141 83.4214C367.463 82.8176 367.023 82.2474 366.82 81.7107Z" fill="black"/>
</svg>
